<?xml version="1.0" encoding="utf-8"?>
<!-- Generator: Adobe Illustrator 19.2.1, SVG Export Plug-In . SVG Version: 6.00 Build 0)  -->
<svg version="1.1" id="Layer_1" xmlns="http://www.w3.org/2000/svg" xmlns:xlink="http://www.w3.org/1999/xlink" x="0px" y="0px"
	 viewBox="0 0 133.995 150" style="enable-background:new 0 0 133.995 150;" xml:space="preserve">
<style type="text/css">
	.st0{fill:#BD1E2D;}
	.st1{fill:#FFFFFF;}
	.st2{fill:#E5E6E7;}
	.st3{fill:#C32C3B;}
	.st4{fill:#8D180F;}
	.st5{fill:#FEFEFE;}
	.st6{fill:#F0F1F0;}
	.st7{fill:#D0D2D3;}
	.st8{fill:#A2FFA3;}
	.st9{fill:#98F19A;}
	.st10{fill:#C9FFCF;}
	.st11{fill:#BAF0BD;}
	.st12{fill:#569767;}
	.st13{fill:#FFBBF3;}
	.st14{fill:#88DEDE;}
	.st15{fill:#F0F1F1;}
	.st16{fill:#72CED3;}
	.st17{fill:#FFA4F3;}
	.st18{fill:#A6A8AB;}
	.st19{fill:#F1DBBF;}
	.st20{fill:#E0CCB0;}
	.st21{fill:#CAB79C;}
	.st22{fill:#E783B9;}
	.st23{fill:#FFC94D;}
	.st24{fill:#FFD056;}
	.st25{fill:#FFBB15;}
	.st26{fill:#73C6FF;}
	.st27{fill:#73BAFF;}
	.st28{fill:#83CBFF;}
	.st29{fill:#6294BC;}
	.st30{fill:#F26F61;}
	.st31{fill:#FFDB9D;}
	.st32{fill:#E8BC7A;}
	.st33{fill:#FECD85;}
	.st34{fill:#F3F4F4;}
	.st35{fill:#F47B6C;}
	.st36{fill:#E6695C;}
	.st37{fill:#58595B;}
</style>
<g>
	<g>
		<polygon class="st30" points="57.725,101.37 57.335,101.84 2.015,147.97 2.015,54.77 14.685,65.37 39.345,86 39.355,86 50.105,95 
					"/>
		<path class="st30" d="M132.005,147.97V148H2.015v-0.03l55.32-46.13l0.39-0.47l4.34,3.63c2.8,2.34,6.85,2.34,9.65,0.01l4.48-3.73
			l0.07,0.09L132.005,147.97z"/>
		<polygon class="st30" points="132.005,54.77 132.005,147.97 76.265,101.37 76.195,101.28 83.725,95 83.735,95 93.395,86.95 
			119.355,65.31 131.995,54.78 		"/>
		<polygon class="st31" points="131.995,54.78 119.355,65.31 118.995,64.88 118.995,44 119.295,44 131.985,54.77 		"/>
		<polygon class="st32" points="14.995,43.15 14.995,65 14.685,65.37 2.015,54.77 2.015,53.93 14.935,43.15 		"/>
		<path class="st33" d="M82.655,12.83v0.13l-30.87,0.02v-0.54l10.49-8.75c2.79-2.33,6.85-2.33,9.65,0.01L82.655,12.83z"/>
		<path class="st34" d="M83.725,95l-7.53,6.28l-4.48,3.73c-2.8,2.33-6.85,2.33-9.65-0.01l-4.34-3.63L50.105,95H83.725z"/>
		<polygon class="st34" points="92.605,86 93.395,86.95 83.735,95 83.725,95 50.105,95 39.355,86 		"/>
		<polygon class="st35" points="131.995,54.78 119.355,65.31 111.805,71.604 111.805,131.082 132.005,147.97 132.005,54.77 		"/>
		<polygon class="st34" points="39.345,86 14.685,65.37 14.995,65 14.995,43.15 14.995,13 51.785,12.98 82.655,12.96 118.995,12.94 
			118.995,44 118.995,64.88 119.355,65.31 93.395,86.95 92.605,86 39.355,86 		"/>
		<g>
			<polygon class="st1" points="118.995,12.94 111.995,12.944 111.995,71.445 119.355,65.31 118.995,64.88 118.995,44 			"/>
		</g>
		<polygon class="st36" points="2.005,54.78 14.645,65.31 22.195,71.604 22.195,131.082 1.995,147.97 1.995,54.77 		"/>
		<g>
			<polygon class="st2" points="15.005,12.94 22.005,12.944 22.005,71.445 14.645,65.31 15.005,64.88 15.005,44 			"/>
		</g>
	</g>
	<g>
		<path class="st37" d="M133.117,53.109L120.995,42.82V10.939L83.544,10.96L73.207,2.166c-3.54-2.959-8.678-2.964-12.214-0.011
			l-10.489,8.75c-0.028,0.023-0.048,0.051-0.074,0.075l-37.435,0.021v31.162L0.733,52.395c-0.587,0.489-0.813,1.241-0.668,1.94
			c-0.009,0.041-0.013,0.083-0.019,0.124c-0.011,0.073-0.019,0.145-0.022,0.218c-0.001,0.032-0.009,0.061-0.009,0.093V150h131.99
			l2-0.03v-95.2C134.005,54.077,133.652,53.468,133.117,53.109z M4.014,59.051l34.047,28.483c0.019,0.016,0.04,0.026,0.059,0.041
			l16.571,13.864L4.014,143.697V59.051z M70.435,103.473c-2.057,1.71-5.037,1.707-7.088-0.007L55.619,97h22.582L70.435,103.473z
			 M83.01,93H50.838l-5.976-5H89.01L83.01,93z M57.81,104.048l2.972,2.487c1.771,1.479,3.941,2.219,6.113,2.219
			c2.166,0,4.331-0.735,6.099-2.207l3.177-2.648L126.53,146H7.5L57.81,104.048z M79.294,101.296l5.668-4.724
			c0.017-0.013,0.036-0.022,0.052-0.036l44.99-37.494v84.649L79.294,101.296z M128.888,54.766l-7.893,6.578V48.066L128.888,54.766z
			 M63.556,5.225c2.049-1.712,5.029-1.709,7.072-0.001l6.747,5.74l-20.713,0.012L63.556,5.225z M116.995,14.941v49.736
			L93.527,84.236C93.25,84.09,92.939,84,92.604,84H40.071l-5.977-5h62.24c1.104,0,2-0.896,2-2s-0.896-2-2-2H29.313L16.995,64.695
			V14.999L116.995,14.941z M12.995,61.348l-8.364-6.997l8.364-6.979V61.348z"/>
		<path class="st37" d="M28.884,29h17.11c1.104,0,2-0.896,2-2s-0.896-2-2-2h-17.11c-1.104,0-2,0.896-2,2S27.78,29,28.884,29z"/>
		<path class="st37" d="M28.884,43h69.7c1.104,0,2-0.896,2-2s-0.896-2-2-2h-69.7c-1.104,0-2,0.896-2,2S27.78,43,28.884,43z"/>
		<path class="st37" d="M28.884,52h72.69c1.104,0,2-0.896,2-2s-0.896-2-2-2h-72.69c-1.104,0-2,0.896-2,2S27.78,52,28.884,52z"/>
		<path class="st37" d="M28.884,61h67.73c1.104,0,2-0.896,2-2s-0.896-2-2-2h-67.73c-1.104,0-2,0.896-2,2S27.78,61,28.884,61z"/>
		<path class="st37" d="M28.884,70h72.69c1.104,0,2-0.896,2-2s-0.896-2-2-2h-72.69c-1.104,0-2,0.896-2,2S27.78,70,28.884,70z"/>
	</g>
</g>
</svg>
