<?xml version="1.0" encoding="utf-8"?>
<!-- Generator: Adobe Illustrator 19.2.1, SVG Export Plug-In . SVG Version: 6.00 Build 0)  -->
<svg version="1.1" id="Layer_1" xmlns="http://www.w3.org/2000/svg" xmlns:xlink="http://www.w3.org/1999/xlink" x="0px" y="0px"
	 viewBox="0 0 186.061 150" style="enable-background:new 0 0 186.061 150;" xml:space="preserve">
<style type="text/css">
	.st0{display:none;fill:none;stroke:#FFFFFF;stroke-width:2;stroke-linecap:round;stroke-miterlimit:10;}
	.st1{fill:#9D2106;}
	.st2{fill:#822104;}
	.st3{fill:#951B05;}
	.st4{fill:#FFFFFF;}
	.st5{fill:#8A1F0C;}
	.st6{fill:#E2E3E4;}
	.st7{fill:#6DA2C8;}
	.st8{fill:#D6E6EF;}
	.st9{fill:#B49CB5;}
	.st10{fill:#AC9EB6;}
	.st11{fill:#EBF3F7;}
	.st12{fill:#A69FB5;}
	.st13{fill:#B99FB5;}
	.st14{fill:#D093FB;}
	.st15{fill:#45F8B9;}
	.st16{fill:#41E8A3;}
	.st17{fill:#3072AA;}
	.st18{fill:#FD9E99;}
	.st19{fill:#9ED098;}
	.st20{fill:#75C5B6;}
	.st21{fill:#8DB485;}
	.st22{fill:#5AB49E;}
	.st23{fill:#E4E5E6;}
	.st24{fill:#788782;}
	.st25{fill:#CFD1D2;}
	.st26{fill:#BABCBE;}
	.st27{fill:#998379;}
	.st28{fill:#826D64;}
	.st29{fill:#EFF0F0;}
	.st30{fill:#58515B;}
	.st31{fill:#B98BD2;}
	.st32{fill:#9756AC;}
	.st33{fill:#814497;}
	.st34{fill:#25B598;}
	.st35{fill:#008B84;}
	.st36{fill:#7BE4C2;}
	.st37{fill:#25A48D;}
	.st38{fill:#68DAB4;}
	.st39{fill:#9CFFB4;}
	.st40{fill:#4D5CEA;}
	.st41{fill:#FF9B95;}
	.st42{fill:#FF868C;}
	.st43{fill:#FF6B77;}
	.st44{fill:#EF85FF;}
	.st45{fill:#C44FD7;}
	.st46{fill:#006838;}
	.st47{fill:#005E26;}
	.st48{fill:#5D3A47;}
	.st49{fill:#FFBC13;}
	.st50{fill:#808083;}
	.st51{fill:#56C681;}
	.st52{fill:#6D6E71;}
	.st53{fill:#D3951D;}
	.st54{fill:#3FB068;}
	.st55{fill:#FBEEEE;}
	.st56{fill:#FBF0F1;}
	.st57{fill:#F9E7E8;}
	.st58{fill:#F5D9DB;}
	.st59{fill:#F1C9CC;}
	.st60{fill:#44A468;}
	.st61{fill:#389D61;}
	.st62{fill:#E7A1A5;}
	.st63{fill:#2DAB5B;}
	.st64{fill:#4EC5FF;}
	.st65{fill:#3EA2FF;}
	.st66{fill:#00774E;}
	.st67{fill:#673DAB;}
	.st68{fill:#DEFF5C;}
	.st69{fill:#00BFE0;}
	.st70{fill:#E1329F;}
	.st71{fill:#00BAA3;}
	.st72{fill:#00DCA3;}
	.st73{fill:#00A9E0;}
	.st74{fill:#FF329F;}
	.st75{fill:#FD76A2;}
	.st76{fill:#E76899;}
	.st77{fill:#A37550;}
	.st78{fill:#956744;}
	.st79{fill:#504239;}
	.st80{fill:#FD86AE;}
	.st81{fill:#F5A7D6;}
	.st82{fill:#A54A78;}
	.st83{fill:#D898FF;}
	.st84{fill:#76DDED;}
	.st85{fill:#D888FF;}
	.st86{fill:#715D94;}
	.st87{fill:#52A871;}
	.st88{fill:#F9CA40;}
	.st89{fill:#F9B240;}
	.st90{fill:#919396;}
	.st91{fill:none;stroke:#7CACCD;stroke-width:2;stroke-linecap:round;stroke-linejoin:round;stroke-miterlimit:10;}
	.st92{fill:#1C75BA;}
	.st93{fill:#726658;}
	.st94{fill:#138B38;}
	.st95{fill:#675D50;}
	.st96{fill:#13A138;}
	.st97{fill:#C5C7C8;}
	.st98{fill:#224463;}
	.st99{fill:#594A42;}
	.st100{fill:#1C65AC;}
	.st101{fill:#A5A7AA;}
	.st102{fill:#007E38;}
	.st103{fill:#8F6764;}
	.st104{fill:#7F5C59;}
	.st105{fill:#A47572;}
	.st106{fill:#845F5C;}
	.st107{fill:#86615E;}
	.st108{fill:#AF7C79;}
	.st109{fill:#996E6B;}
	.st110{fill:#996D6A;}
	.st111{fill:#735758;}
	.st112{fill:#906742;}
	.st113{fill:#EEEFEF;}
	.st114{fill:#CED0D1;}
	.st115{fill:#E3E4E5;}
	.st116{fill:#81593D;}
	.st117{fill:#57342B;}
	.st118{fill:#F4911E;}
	.st119{fill:#EE5A29;}
	.st120{fill:#58595B;}
	.st121{fill:#A3D3E3;}
	.st122{fill:#DD840D;}
	.st123{fill:#B9BBBD;}
	.st124{fill:#D44B29;}
	.st125{fill:#C2E2ED;}
	.st126{fill:#4A4C4F;}
	.st127{fill:#414042;}
	.st128{fill:#D67CDB;}
	.st129{fill:#D995E5;}
	.st130{fill:#9E00A0;}
	.st131{fill:#91E0E2;}
	.st132{fill:#F9CFD3;}
	.st133{fill:#7DCED5;}
	.st134{fill:#ECEDED;}
	.st135{fill:#F9BCC1;}
	.st136{fill:#514337;}
	.st137{fill:none;stroke:#FFFFFF;stroke-width:2;stroke-linecap:round;stroke-linejoin:round;stroke-miterlimit:10;}
	.st138{fill:#EE2500;}
	.st139{fill:#D52600;}
	.st140{fill:#5C0600;}
	.st141{fill:#FFC725;}
	.st142{fill:#FFDF4F;}
	.st143{fill:#FFF16B;}
	.st144{fill:#AC771D;}
	.st145{fill:#689340;}
	.st146{fill:#4C8032;}
	.st147{fill:#2C3039;}
	.st148{opacity:0.1;}
	.st149{fill:#8E9093;}
	.st150{opacity:0.4;fill:#414042;}
</style>
<path class="st4" d="M25.541,50v16.46L5.181,52l-0.12-0.16c1.5-1.16,3.37-1.84,5.4-1.84H25.541z"/>
<path class="st134" d="M52.541,100.15v0.2l-39.55,46.72v1.05h-3.01c-4.66,0-8.44-3.78-8.44-8.44V58.92c0-2.89,1.38-5.46,3.52-7.08
	L5.181,52l20.36,14.46v25.25c0,4.66,3.78,8.44,8.44,8.44h3.01h10.84H52.541z"/>
<polygon class="st134" points="147.851,147.07 147.851,148.12 23.831,148.12 12.991,148.12 12.991,147.07 52.541,100.35 
	52.541,100.15 108.541,100.15 108.541,100.67 "/>
<g class="st148">
	<polygon class="st127" points="72.991,99.902 67.817,96.22 60.467,91.01 60.197,91.39 13.157,146.95 13.157,148 23.997,148 
		28.707,148 33.157,148 33.157,146.95 	"/>
</g>
<g class="st148">
	<polygon class="st127" points="88.707,99.902 93.881,96.22 101.231,91.01 101.501,91.39 148.541,146.95 148.541,148 137.701,148 
		132.991,148 128.541,148 128.541,146.95 	"/>
</g>
<path class="st134" d="M158.541,101v38.68c0,4.66-3.78,8.44-8.44,8.44h-1.33l-0.92-1.05l-39.31-46.4v-0.52h50V101z"/>
<path class="st134" d="M172.101,100.15h-0.25V99.1l-46.92-55.39l-0.4-0.57L179.721,4l0.18-0.25c2.21,1.61,3.64,4.23,3.64,7.17v80.79
	c0,4.66-3.78,8.44-8.44,8.44H172.101z"/>
<path class="st134" d="M171.851,99.1v1.05h-12.56h-50.75h-56h-4.71h-10.84V99.1l47.04-55.56l0.27-0.38l7.35,5.21l6.21,4.42
	c3.94,2.76,9.18,2.76,13.09,0l13.58-9.65l0.4,0.57L171.851,99.1z"/>
<g class="st148">
	<polygon class="st127" points="96.824,52.052 91.651,48.37 84.301,43.16 84.031,43.54 36.991,99.1 36.991,100.15 47.831,100.15 
		52.541,100.15 56.991,100.15 56.991,99.1 	"/>
</g>
<path class="st134" d="M84.301,43.16l-0.27,0.38L36.991,99.1v1.05h-3.01c-4.66,0-8.44-3.78-8.44-8.44V66.46V50V10.92
	c0-2.7,1.2-5.11,3.1-6.75L84.301,43.16z"/>
<path class="st4" d="M179.901,3.75L179.721,4l-55.19,39.14l-13.58,9.65c-3.91,2.76-9.15,2.76-13.09,0l-6.21-4.42l-7.35-5.21
	L28.641,4.17c1.56-1.35,3.6-2.17,5.82-2.17h140.16C176.601,2,178.431,2.65,179.901,3.75z"/>
<g class="st148">
	<polygon class="st127" points="112.541,52.052 117.714,48.37 125.064,43.16 125.334,43.54 172.374,99.1 172.374,100.15 
		161.534,100.15 156.824,100.15 152.374,100.15 152.374,99.1 	"/>
</g>
<path class="st149" d="M181.089,2.141C179.212,0.74,176.975,0,174.621,0H34.461c-2.378,0-4.682,0.787-6.568,2.215
	c-0.417,0.141-0.793,0.41-1.047,0.809c-0.041,0.064-0.068,0.132-0.1,0.198c-2.04,2.043-3.205,4.8-3.205,7.698V48h-13.08
	c-2.423,0-4.713,0.781-6.607,2.245c-2.741,2.075-4.312,5.237-4.312,8.675v80.76c0,5.757,4.684,10.44,10.439,10.44H150.1
	c5.757,0,10.44-4.684,10.44-10.44V102.15h14.56c5.757,0,10.44-4.684,10.44-10.44V10.92C185.541,7.458,183.877,4.177,181.089,2.141z
	 M174.621,4c0.482,0,0.951,0.067,1.412,0.163l-52.66,37.347l-13.575,9.646c-3.213,2.267-7.548,2.267-10.776,0.004l-13.573-9.639
	L32.375,4.346C33.046,4.132,33.745,4,34.461,4H174.621z M40.415,98.15l44.258-52.273l12.041,8.551
	c2.308,1.617,5.006,2.425,7.701,2.425c2.7,0,5.396-0.811,7.694-2.433l12.031-8.549l44.284,52.279H40.415z M107.173,102.15
	l37.25,43.97H16.415l37.221-43.97H107.173z M27.541,10.92c0-1.494,0.487-2.933,1.368-4.116l52.482,36.76L35.465,97.808
	c-0.091,0.108-0.168,0.223-0.233,0.343H33.98c-3.551,0-6.439-2.89-6.439-6.44V10.92z M23.541,52v10.587l-14.63-10.39
	C9.415,52.08,9.93,52,10.461,52H23.541z M3.541,139.68V58.92c0-1.666,0.588-3.226,1.647-4.461l18.353,13.034V91.71
	c0,5.757,4.684,10.44,10.439,10.44h14.416l-36.932,43.628c-0.091,0.108-0.168,0.222-0.233,0.342H9.98
	C6.429,146.12,3.541,143.23,3.541,139.68z M156.541,139.68c0,3.551-2.89,6.44-6.44,6.44h-0.49c-0.065-0.12-0.142-0.235-0.233-0.343
	l-36.96-43.627h44.124V139.68z M181.541,91.71c0,3.551-2.89,6.44-6.44,6.44h-1.49c-0.065-0.12-0.142-0.236-0.234-0.344
	l-45.963-54.259l52.409-37.168c1.09,1.242,1.718,2.855,1.718,4.541V91.71z"/>
<path class="st150" d="M108.541,102.15h-56h-4.71h-10.84h-2.986c-5.755,0-10.464-4.709-10.464-10.464V66.46V48h-10v46.929
	c0,10.063,8.158,18.221,18.221,18.221h128.845v-11L108.541,102.15z"/>
</svg>
